<?xml version="1.0" encoding="UTF-8"?>
<svg version="1.1" xmlns="http://www.w3.org/2000/svg" width="258" height="244">
<path d="M0 0 C85.14 0 170.28 0 258 0 C258 80.52 258 161.04 258 244 C172.86 244 87.72 244 0 244 C0 163.48 0 82.96 0 0 Z " fill="#070707" transform="translate(0,0)"/>
<path d="M0 0 C85.14 0 170.28 0 258 0 C258 80.52 258 161.04 258 244 C172.86 244 87.72 244 0 244 C0 163.48 0 82.96 0 0 Z M48 41 C47.21238281 41.72703125 46.42476562 42.4540625 45.61328125 43.203125 C27.17881575 60.57591971 14.30184345 87.39329129 12.83886719 112.7980957 C12.32436373 148.05653887 20.32704856 178.50882218 45.265625 204.66479492 C66.02409579 225.83727485 93.87054807 239.88326798 123.90844727 240.24169922 C154.11683766 240.31536237 180.35455207 232.34293252 204 213 C204.67417969 212.46632812 205.34835938 211.93265625 206.04296875 211.3828125 C210.55545742 207.69711535 214.3248759 203.50968353 218 199 C218.70125 198.14792969 219.4025 197.29585937 220.125 196.41796875 C240.31374449 170.7964892 248.28215783 139.51868012 244.69091797 107.22021484 C240.20176376 76.88545761 222.59262083 48.48881878 198.23046875 30.0390625 C151.83749697 -3.02479234 88.55791194 0.85776212 48 41 Z " fill="#F6F6F6" transform="translate(0,0)"/>
<path d="M0 0 C1.64246704 0.00845947 1.64246704 0.00845947 3.31811523 0.01708984 C32.17931364 0.44648972 57.82690181 12.81722669 78.5 32.5625 C98.00557836 52.77685665 109.27537293 79.29381779 108.8828125 107.41796875 C108.85960937 108.37316406 108.83640625 109.32835938 108.8125 110.3125 C108.28785156 110.13074219 107.76320312 109.94898437 107.22265625 109.76171875 C94.00188591 105.47211773 81.33717489 104.03914979 67.5 104 C65.74840576 103.99190308 65.74840576 103.99190308 63.96142578 103.98364258 C56.39782458 104.04520055 49.22634685 104.83591388 41.8125 106.3125 C40.34176025 106.59988037 40.34176025 106.59988037 38.84130859 106.89306641 C26.75695939 109.37219232 15.44157116 115.23874505 4.8125 121.3125 C4.8125 106.4625 4.8125 91.6125 4.8125 76.3125 C11.2475 75.3225 11.2475 75.3225 17.8125 74.3125 C28.41679357 71.20037037 36.66301611 66.51259023 42.53125 56.87890625 C47.53130921 46.86354375 48.8125 36.39915617 48.8125 25.3125 C34.92697937 24.62110478 22.09193502 26.37632789 10.8125 35.3125 C4.33703122 41.91249702 -0.23554758 50.03096389 -1.1875 59.3125 C-1.8475 59.3125 -2.5075 59.3125 -3.1875 59.3125 C-4.06914859 58.13895424 -4.89259427 56.9214525 -5.6875 55.6875 C-11.77808189 47.31480226 -21.28159752 44.0006095 -31 41.625 C-36.05651838 41.1292629 -41.11130416 41.23857482 -46.1875 41.3125 C-46.97661258 54.65727046 -45.9506082 67.98859954 -36.83984375 78.67578125 C-26.90963269 88.5120896 -17.23185855 90.30616306 -3.1875 92.3125 C-3.1875 101.8825 -3.1875 111.4525 -3.1875 121.3125 C-5.559375 120.095625 -7.93125 118.87875 -10.375 117.625 C-36.62101144 104.40958818 -68.42549844 98.85532868 -97.1875 107.3125 C-98.21230469 107.59867187 -99.23710938 107.88484375 -100.29296875 108.1796875 C-102.60749702 108.85010259 -104.90073201 109.55383109 -107.1875 110.3125 C-108.45182564 80.34329971 -96.67115979 54.69914317 -76.890625 32.765625 C-56.97240899 11.80593365 -28.86011351 -0.15686062 0 0 Z " fill="#F5F5F5" transform="translate(128.1875,15.6875)"/>
<path d="M0 0 C3.89876495 3.07503599 7.59082413 6.34829036 11.25585938 9.69677734 C12.36380859 10.68097656 12.36380859 10.68097656 13.49414062 11.68505859 C27.3751756 24.67592699 36.48033955 42.49953338 41.25585938 60.69677734 C41.48015625 61.44443359 41.70445312 62.19208984 41.93554688 62.96240234 C43.3634037 67.93056172 43.46893732 72.58290677 43.25585938 77.69677734 C37.54584037 80.68773968 32.7507092 82.83916022 26.25585938 82.69677734 C25.85367188 81.35099609 25.85367188 81.35099609 25.44335938 79.97802734 C19.3004674 60.41776607 9.69968559 43.40496644 -4.74414062 28.69677734 C-5.52917969 27.88724609 -6.31421875 27.07771484 -7.12304688 26.24365234 C-29.39198556 4.62068288 -60.53154936 -4.8621496 -91.05664062 -4.42822266 C-92.28576172 -4.41919922 -93.51488281 -4.41017578 -94.78125 -4.40087891 C-97.76909606 -4.37762719 -100.75650547 -4.34495389 -103.74414062 -4.30322266 C-103.74414062 -6.94322266 -103.74414062 -9.58322266 -103.74414062 -12.30322266 C-71.59983818 -28.20619334 -28.1777209 -21.05440568 0 0 Z " fill="#F3F3F3" transform="translate(125.744140625,146.30322265625)"/>
<path d="M0 0 C17.13474268 13.80079139 30.84191877 32.91004958 36.5625 54.4375 C36.5625 55.7575 36.5625 57.0775 36.5625 58.4375 C34.56316698 58.77481079 32.56298714 59.1071028 30.5625 59.4375 C29.40234375 59.66695313 28.2421875 59.89640625 27.046875 60.1328125 C22.73484094 60.62896705 19.74200936 60.68744672 15.5625 59.4375 C11.41116945 55.35344554 9.14129474 49.71326799 6.64160156 44.53564453 C4.30132458 39.98534127 0.91502385 36.26136879 -2.4375 32.4375 C-3.09878906 31.633125 -3.76007813 30.82875 -4.44140625 30 C-22.06179043 9.23195972 -46.4849257 -1.48617526 -72.63085938 -7.02734375 C-78.23441623 -8.27818272 -78.23441623 -8.27818272 -80.3125 -11.1875 C-81.57026045 -14.96078134 -82.56757625 -18.68130172 -83.4375 -22.5625 C-53.46042341 -27.4924171 -23.74384452 -18.52686941 0 0 Z " fill="#F4F4F4" transform="translate(107.4375,172.5625)"/>
<path d="M0 0 C0 2.64 0 5.28 0 8 C-0.76852295 7.97905273 -1.5370459 7.95810547 -2.32885742 7.93652344 C-29.23715458 7.30296246 -53.57784043 9.61453845 -76.7746582 24.2800293 C-78.671875 25.4375 -78.671875 25.4375 -82 27 C-85.13419948 25.90072562 -87.15141417 24.0865226 -89.453125 21.7421875 C-90.071875 21.11699219 -90.690625 20.49179688 -91.328125 19.84765625 C-91.96234375 19.19667969 -92.5965625 18.54570312 -93.25 17.875 C-93.8996875 17.21628906 -94.549375 16.55757812 -95.21875 15.87890625 C-96.81711727 14.25703357 -98.41061897 12.6306719 -100 11 C-91.49423825 3.71166599 -80.72737714 -0.78933325 -70.0625 -3.9375 C-69.38993164 -4.13657959 -68.71736328 -4.33565918 -68.02441406 -4.54077148 C-46.02765835 -10.61228641 -20.97792329 -8.24020375 0 0 Z " fill="#F4F4F4" transform="translate(236,134)"/>
<path d="M0 0 C20.29043976 1.75659284 38.31397907 11.46412908 54 24 C54.78246094 24.61488281 55.56492188 25.22976562 56.37109375 25.86328125 C65.90658719 33.80102712 74.54092686 44.85151307 80 56 C80 56.66 80 57.32 80 58 C53.74163184 55.11555804 28.05547781 39.73383467 11.60302734 19.26171875 C10.20485662 17.44482628 8.84301182 15.60799387 7.5 13.75 C7.09048096 13.1837793 6.68096191 12.61755859 6.2590332 12.03417969 C3.57065062 8.17029858 1.72186749 4.34881917 0 0 Z " fill="#F3F3F3" transform="translate(33,173)"/>
<path d="M0 0 C-0.45142775 1.77260631 -0.91140523 3.5430368 -1.375 5.3125 C-1.75785156 6.79169922 -1.75785156 6.79169922 -2.1484375 8.30078125 C-3 11 -3 11 -5 14 C-7.26806641 14.78027344 -7.26806641 14.78027344 -10.1015625 15.359375 C-11.14159424 15.58423584 -12.18162598 15.80909668 -13.25317383 16.04077148 C-14.36587646 16.27481689 -15.4785791 16.5088623 -16.625 16.75 C-32.31795334 20.28730487 -48.08239248 25.72311928 -60.64453125 36.20703125 C-63 38 -63 38 -66 38 C-66.47050781 37.03578125 -66.94101563 36.0715625 -67.42578125 35.078125 C-68.05447179 33.80197704 -68.68339007 32.52594126 -69.3125 31.25 C-69.62123047 30.61578125 -69.92996094 29.9815625 -70.24804688 29.328125 C-71.58257707 26.63096924 -72.90057225 24.13017629 -74.73046875 21.734375 C-76 20 -76 20 -76 17 C-55.18770174 4.36510706 -24.72170328 -8.24056776 0 0 Z " fill="#F3F3F3" transform="translate(234,150)"/>
<path d="M0 0 C-7.0969579 19.45484478 -26.1652665 36.52680822 -44 46 C-46.3828125 46.71875 -46.3828125 46.71875 -48 47 C-48.10957031 46.27296875 -48.21914062 45.5459375 -48.33203125 44.796875 C-49.49669904 37.41117683 -51.07859611 30.22447862 -53 23 C-39.27711576 12.12246541 -18.33020949 -1.45300441 0 0 Z " fill="#F3F3F3" transform="translate(225,173)"/>
<path d="M0 0 C9.81120688 0.23876831 19.0367229 2.872532 26.4375 9.5625 C33.127468 16.9632771 35.76123169 26.18879312 36 36 C25.78372931 36.56757059 16.77876599 33.8101457 9 27 C3.02269682 20.30489841 -0.13305278 11.79629154 -0.1875 2.8125 C-0.125625 1.884375 -0.06375 0.95625 0 0 Z " fill="#F3F3F3" transform="translate(89,64)"/>
<path d="M0 0 C0.7894348 8.4864241 -1.90216059 17.51964107 -6.75 24.5 C-11.94789924 30.68797529 -19.15066892 34.33499038 -27 36 C-30.05307585 36.21343691 -32.93355868 36.14602102 -36 36 C-35.12464699 24.97055207 -32.61424138 16.19979262 -24.375 8.375 C-17.35345891 2.47586139 -9.10671624 0 0 0 Z " fill="#F3F3F3" transform="translate(169,48)"/>
</svg>
